<svg xmlns="http://www.w3.org/2000/svg" width="1200" height="380" viewBox="0 0 1200 380" role="img" aria-labelledby="title desc">
  <title id="title">NAC — Can Çevik</title>
  <desc id="desc">Building for the web, games, and everything in between. Dark charcoal banner with lime accents and a geometric NAC monogram.</desc>
  <defs>
    <pattern id="grid" width="40" height="40" patternUnits="userSpaceOnUse"><path d="M40 0H0V40" fill="none" stroke="#23272a" stroke-width="1"/></pattern>
    <linearGradient id="fade"><stop stop-color="#c3f85c" stop-opacity=".12"/><stop offset="1" stop-color="#c3f85c" stop-opacity="0"/></linearGradient>
  </defs>
  <rect width="1200" height="380" rx="20" fill="#111416"/>
  <rect width="1200" height="380" rx="20" fill="url(#grid)"/>
  <path d="M720 0H1200V380H720Z" fill="url(#fade)"/>
  <rect x="46" y="42" width="28" height="4" rx="2" fill="#c3f85c"/>
  <text x="88" y="49" fill="#a4aaa5" font-family="monospace" font-size="13" letter-spacing="3">CANCEVIK0 / PERSONAL LAB</text>
  <text x="46" y="153" fill="#f4f5ef" font-family="Arial,Helvetica,sans-serif" font-weight="700" font-size="69" letter-spacing="-3">Can Çevik<tspan fill="#c3f85c">.</tspan></text>
  <text x="50" y="204" fill="#c3f85c" font-family="monospace" font-size="21" letter-spacing="2">BUILD. BREAK. FIGURE IT OUT.</text>
  <text x="50" y="247" fill="#adb5ac" font-family="Arial,Helvetica,sans-serif" font-size="19">Web development · Game modding · Useful little tools</text>
  <path d="M50 302H688" stroke="#343c32"/>
  <text x="50" y="337" fill="#a4aaa5" font-family="monospace" font-size="13" letter-spacing="2">NACSCRIPTS.DEV</text>
  <text x="514" y="337" fill="#a4aaa5" font-family="monospace" font-size="13" letter-spacing="2">ALWAYS LEARNING ↗</text>
  <g fill="none" stroke="#c3f85c" stroke-width="2">
    <rect x="846" y="73" width="248" height="248" rx="40" opacity=".2" transform="rotate(-12 970 197)"/>
    <rect x="846" y="73" width="248" height="248" rx="40" opacity=".5"/>
    <path d="M874 263V137L923 263V137 M947 263L977 137L1007 263 M960 222H994 M1074 151Q1027 113 1027 200Q1027 283 1074 248" stroke-width="7" stroke-linejoin="round" stroke-linecap="round"/>
    <path d="M846 113V93Q846 73 866 73H894" stroke-width="4"><animate attributeName="opacity" values="1;.25;1" dur="4s" repeatCount="indefinite"/></path>
  </g>
  <circle cx="1105" cy="332" r="4" fill="#c3f85c"><animate attributeName="opacity" values=".3;1;.3" dur="4s" repeatCount="indefinite"/></circle>
</svg>
